<svg xmlns="http://www.w3.org/2000/svg" width="138" height="138" viewBox="0 0 138 138">
  <g id="avatar" transform="translate(-119 -126)">
    <g id="Group_22" data-name="Group 22">
      <circle id="Ellipse_1" data-name="Ellipse 1" cx="69" cy="69" r="69" transform="translate(119 126)" fill="#f1f1f1"/>
    </g>
    <g id="man-avatar" transform="translate(146 137)">
      <path id="Path_6" data-name="Path 6" d="M110.7,47.345a22.906,22.906,0,0,0,16.738-6.935,22.908,22.908,0,0,0,6.935-16.738,22.908,22.908,0,0,0-6.935-16.738,23.667,23.667,0,0,0-33.475,0,22.906,22.906,0,0,0-6.935,16.737A22.907,22.907,0,0,0,93.967,40.41,22.914,22.914,0,0,0,110.7,47.345ZM98.04,11.007a17.907,17.907,0,0,1,25.329,0,17.114,17.114,0,0,1,5.248,12.664,17.114,17.114,0,0,1-5.248,12.665,17.9,17.9,0,0,1-25.329,0,17.111,17.111,0,0,1-5.249-12.665A17.112,17.112,0,0,1,98.04,11.007Zm0,0" transform="translate(-70.325 0)" fill="#2cff1d"/>
      <path id="Path_7" data-name="Path 7" d="M81.8,275.417a58.468,58.468,0,0,0-.8-6.21,48.931,48.931,0,0,0-1.527-6.244,30.841,30.841,0,0,0-2.568-5.823,21.949,21.949,0,0,0-3.87-5.044,17.064,17.064,0,0,0-5.56-3.494,19.216,19.216,0,0,0-7.1-1.285c-1,0-1.974.412-3.848,1.632-1.153.752-2.5,1.622-4.008,2.584a22.965,22.965,0,0,1-5.186,2.285,20.136,20.136,0,0,1-12.686,0,22.891,22.891,0,0,1-5.182-2.284c-1.491-.953-2.841-1.823-4.012-2.586-1.872-1.22-2.843-1.632-3.846-1.632a19.192,19.192,0,0,0-7.1,1.286A17.053,17.053,0,0,0,8.955,252.1a21.959,21.959,0,0,0-3.869,5.044,30.9,30.9,0,0,0-2.567,5.824,49.05,49.05,0,0,0-1.527,6.243,58.074,58.074,0,0,0-.8,6.213c-.13,1.877-.2,3.83-.2,5.8,0,5.131,1.631,9.284,4.847,12.347,3.176,3.023,7.379,4.555,12.49,4.555H64.662c5.11,0,9.312-1.533,12.49-4.555C80.369,290.51,82,286.355,82,281.223c0-1.98-.067-3.934-.2-5.805Zm-8.62,13.98c-2.1,2-4.885,2.969-8.519,2.969H17.337c-3.635,0-6.421-.971-8.519-2.968-2.058-1.959-3.059-4.634-3.059-8.175,0-1.842.061-3.66.182-5.406a52.382,52.382,0,0,1,.72-5.593A43.255,43.255,0,0,1,8,264.72a25.162,25.162,0,0,1,2.089-4.735,16.275,16.275,0,0,1,2.844-3.728,11.322,11.322,0,0,1,3.7-2.3,13.255,13.255,0,0,1,4.536-.875c.2.107.561.312,1.143.691,1.184.772,2.549,1.652,4.057,2.616a28.545,28.545,0,0,0,6.51,2.909,25.894,25.894,0,0,0,16.229,0,28.578,28.578,0,0,0,6.513-2.911c1.544-.987,2.87-1.842,4.054-2.614.582-.379.941-.584,1.143-.691a13.264,13.264,0,0,1,4.537.875,11.338,11.338,0,0,1,3.7,2.3,16.233,16.233,0,0,1,2.844,3.728,25.079,25.079,0,0,1,2.09,4.734,43.16,43.16,0,0,1,1.344,5.5,52.82,52.82,0,0,1,.72,5.595h0c.122,1.739.184,3.557.184,5.4,0,3.542-1,6.216-3.059,8.174Zm0,0" transform="translate(0 -199.84)" fill="#2cff1d"/>
    </g>
  </g>
</svg>
