<svg xmlns="http://www.w3.org/2000/svg" width="37.504" height="36.43" viewBox="0 0 37.504 36.43">
  <g id="cart" transform="translate(-31.719 -38)">
    <path id="Path_3" data-name="Path 3" d="M132.054,380.772a3.887,3.887,0,1,0,3.887,3.887,3.887,3.887,0,0,0-3.887-3.887Zm0,6.1a2.215,2.215,0,1,1,2.215-2.215,2.215,2.215,0,0,1-2.215,2.215Z" transform="translate(-88.385 -314.116)" fill="#2cff1d"/>
    <path id="Path_4" data-name="Path 4" d="M330.173,380.772a3.887,3.887,0,1,0,3.887,3.887,3.887,3.887,0,0,0-3.887-3.887Zm0,6.1a2.215,2.215,0,1,1,2.215-2.215,2.215,2.215,0,0,1-2.215,2.215Z" transform="translate(-269.941 -314.116)" fill="#2cff1d"/>
    <path id="Path_5" data-name="Path 5" d="M68.4,43.468l-28.431-.429-.78-2.363A3.891,3.891,0,0,0,35.493,38H32.555a.836.836,0,1,0,0,1.672h2.938A2.222,2.222,0,0,1,37.6,41.2l.985,2.977,4.544,13.734-.41.992a3.87,3.87,0,0,0,3.593,5.347H63.283a.836.836,0,1,0,0-1.672H46.311a2.2,2.2,0,0,1-2.047-3.042l.321-.775,18.37-1.881A4.765,4.765,0,0,0,67.1,53.254L69.2,44.5a.836.836,0,0,0-.8-1.03Zm-2.922,9.4a3.092,3.092,0,0,1-2.689,2.353l-18.177,1.86L40.521,44.719l26.806.4Z" fill="#2cff1d"/>
  </g>
</svg>
