<svg xmlns="http://www.w3.org/2000/svg" width="31.47" height="34.355" viewBox="0 0 31.47 34.355">
  <g id="customer-service" transform="translate(-17.755)">
    <g id="Group_17" data-name="Group 17" transform="translate(17.756)">
      <path id="Path_44" data-name="Path 44" d="M45.907,14.2h-.085V12.119a12.119,12.119,0,1,0-24.238,0V14.2h-.51a3.463,3.463,0,0,0-3.317,3.572V23.09a3.359,3.359,0,0,0,3.273,3.443h3.191a.808.808,0,0,0,.769-.845V15.223c0-.51-.3-1.021-.765-1.021h-.936V12.119a10.418,10.418,0,1,1,20.836,0V14.2h-.936c-.468,0-.765.51-.765,1.021v10.42a.808.808,0,0,0,.717.889h1.026l-.085.128a6.718,6.718,0,0,1-5.4,2.679A4.207,4.207,0,1,0,34.6,34.355a4.38,4.38,0,0,0,3.062-1.318A3.742,3.742,0,0,0,38.679,31a8.419,8.419,0,0,0,6.761-3.359l.808-1.191a2.9,2.9,0,0,0,2.977-2.934V18.2C49.224,16.371,47.863,14.2,45.907,14.2ZM23.285,24.833H21.074a1.658,1.658,0,0,1-1.618-1.7V17.774A1.763,1.763,0,0,1,21.074,15.9h2.211Zm13.139,7.016a2.509,2.509,0,0,1-1.828.808,2.594,2.594,0,0,1-2.551-2.509,2.509,2.509,0,0,1,5.018,0h0a2.254,2.254,0,0,1-.638,1.7Zm11.1-8.334c0,1.148-1.106,1.318-1.616,1.318H44.121V15.9h1.786c.936,0,1.616,1.318,1.616,2.3Z" transform="translate(-17.756)" fill="#2cff1d"/>
    </g>
  </g>
</svg>
