<svg xmlns="http://www.w3.org/2000/svg" width="35.114" height="35.097" viewBox="0 0 35.114 35.097">
  <path id="home" d="M33.347,19.873V32.231a2.928,2.928,0,0,1-2.925,2.925H4.682a2.928,2.928,0,0,1-2.925-2.925V19.873a.585.585,0,0,1,1.17,0V32.231a1.757,1.757,0,0,0,1.755,1.755h6.362V24.114a2.928,2.928,0,0,1,2.925-2.925h7.166a2.928,2.928,0,0,1,2.925,2.925v7.532a.585.585,0,0,1-1.17,0V24.114a1.757,1.757,0,0,0-1.755-1.755H13.969a1.757,1.757,0,0,0-1.755,1.755v9.872h4.753V24.772a.585.585,0,0,1,1.17,0v9.214H30.422a1.757,1.757,0,0,0,1.755-1.755V19.873a.585.585,0,1,1,1.17,0ZM3.8,9.416A.585.585,0,0,0,4.389,10c31.829,0,30.251.057,30.483-.121A.582.582,0,0,0,35.1,9.5c.033-.235.243.343-3.844-9.089a.585.585,0,0,0-.537-.352H4.389a.585.585,0,0,0-.537.352L.05,9.183C-.017,9.339,0,9.092,0,13.045a4.824,4.824,0,0,0,9.066,2.3,4.828,4.828,0,0,0,8.484,0,4.828,4.828,0,0,0,8.483,0,4.826,4.826,0,0,0,9.068-2.3.585.585,0,1,0-1.17,0,3.656,3.656,0,1,1-7.313,0,.585.585,0,0,0-1.17,0,3.656,3.656,0,1,1-7.313,0,.585.585,0,1,0-1.17,0,3.656,3.656,0,1,1-7.312-.029.585.585,0,0,0-1.17,0,3.657,3.657,0,1,1-7.313.029V9.537l3.6-8.311H30.33l3.3,7.6H4.389a.585.585,0,0,0-.585.585Z" transform="translate(0.002 -0.059)" fill="#fff"/>
</svg>
