<svg xmlns="http://www.w3.org/2000/svg" width="37.274" height="33.159" viewBox="0 0 37.274 33.159">
  <path id="love" d="M18.636,33.159a2.186,2.186,0,0,1-1.441-.541c-1.506-1.317-2.957-2.554-4.238-3.645l-.007-.006A78.818,78.818,0,0,1,3.7,20.282C1.175,17.239,0,14.353,0,11.2A11.649,11.649,0,0,1,2.957,3.245,10.022,10.022,0,0,1,10.412,0a9.375,9.375,0,0,1,5.856,2.021,11.981,11.981,0,0,1,2.368,2.472A11.982,11.982,0,0,1,21,2.022,9.375,9.375,0,0,1,26.859,0a10.023,10.023,0,0,1,7.455,3.245A11.649,11.649,0,0,1,37.271,11.2c0,3.152-1.174,6.037-3.7,9.08a78.81,78.81,0,0,1-9.253,8.685c-1.283,1.093-2.737,2.332-4.246,3.652a2.187,2.187,0,0,1-1.441.541ZM10.412,2.183a7.863,7.863,0,0,0-5.85,2.542A9.476,9.476,0,0,0,2.183,11.2c0,2.651.985,5.022,3.194,7.688a77.561,77.561,0,0,0,8.989,8.417l.007.006c1.286,1.1,2.743,2.338,4.26,3.664,1.526-1.329,2.985-2.573,4.274-3.67A77.582,77.582,0,0,0,31.9,18.889c2.209-2.666,3.194-5.037,3.194-7.688A9.476,9.476,0,0,0,32.71,4.725a7.862,7.862,0,0,0-5.85-2.542,7.241,7.241,0,0,0-4.521,1.565A10.594,10.594,0,0,0,19.82,6.663a1.378,1.378,0,0,1-2.368,0,10.584,10.584,0,0,0-2.519-2.915,7.241,7.241,0,0,0-4.52-1.565Zm0,0" transform="translate(0.002 0)" fill="#fff"/>
</svg>
