<svg xmlns="http://www.w3.org/2000/svg" width="17.532" height="15.598" viewBox="0 0 17.532 15.598">
  <path id="love-and-romance" d="M8.766,15.6a1.028,1.028,0,0,1-.678-.255c-.708-.619-1.391-1.2-1.994-1.715l0,0A37.075,37.075,0,0,1,1.739,9.54,6.525,6.525,0,0,1,0,5.269,5.48,5.48,0,0,1,1.391,1.526,4.714,4.714,0,0,1,4.9,0,4.41,4.41,0,0,1,7.652.951,5.636,5.636,0,0,1,8.766,2.114,5.636,5.636,0,0,1,9.88.951,4.41,4.41,0,0,1,12.634,0a4.715,4.715,0,0,1,3.507,1.526,5.479,5.479,0,0,1,1.391,3.742A6.525,6.525,0,0,1,15.793,9.54a37.071,37.071,0,0,1-4.352,4.085c-.6.514-1.287,1.1-2,1.718a1.029,1.029,0,0,1-.678.254ZM4.9,1.027a3.7,3.7,0,0,0-2.752,1.2A4.457,4.457,0,0,0,1.027,5.269a5.49,5.49,0,0,0,1.5,3.616,36.484,36.484,0,0,0,4.228,3.959l0,0c.6.515,1.29,1.1,2,1.723.718-.625,1.4-1.21,2.01-1.726A36.493,36.493,0,0,0,15,8.885a5.491,5.491,0,0,0,1.5-3.616,4.457,4.457,0,0,0-1.119-3.046,3.7,3.7,0,0,0-2.752-1.2,3.406,3.406,0,0,0-2.126.736A4.983,4.983,0,0,0,9.323,3.135a.648.648,0,0,1-1.114,0A4.979,4.979,0,0,0,7.024,1.763,3.406,3.406,0,0,0,4.9,1.027Zm0,0" transform="translate(0 0)" fill="red"/>
</svg>
