<svg xmlns="http://www.w3.org/2000/svg" width="32.939" height="41.697" viewBox="0 0 32.939 41.697">
  <path id="notifications" d="M85.684,33.118a6.466,6.466,0,0,1-1.965-2.676c-1.693-3.583-2.048-8.63-2.048-12.234v-.047A11.808,11.808,0,0,0,74.719,7.453V4.636A4.637,4.637,0,0,0,70.092,0h-.385a4.637,4.637,0,0,0-4.628,4.636V7.453a11.808,11.808,0,0,0-6.952,10.756c0,3.6-.355,8.651-2.048,12.234a6.466,6.466,0,0,1-1.965,2.676,1.185,1.185,0,0,0-.651,1.348,1.24,1.24,0,0,0,1.223.953h8.937a6.277,6.277,0,1,0,12.554,0h8.937a1.24,1.24,0,0,0,1.223-.953,1.185,1.185,0,0,0-.653-1.349ZM67.517,4.636a2.194,2.194,0,0,1,2.19-2.194h.384a2.194,2.194,0,0,1,2.19,2.194V6.661a11.809,11.809,0,0,0-4.763,0V4.636ZM69.9,39.174a3.847,3.847,0,0,1-3.838-3.754h7.677A3.847,3.847,0,0,1,69.9,39.174Zm4.909-6.2H57.464a12.781,12.781,0,0,0,.639-1.122c1.634-3.222,2.463-7.814,2.463-13.646a9.333,9.333,0,1,1,18.666,0q0,.023,0,.045c0,5.809.833,10.384,2.463,13.6a12.787,12.787,0,0,0,.639,1.122Z" transform="translate(-53.431)" fill="#2cff1d"/>
</svg>
