<svg xmlns="http://www.w3.org/2000/svg" width="30.012" height="35.962" viewBox="0 0 30.012 35.962">
  <g id="profil" transform="translate(0.006 -0.001)">
    <path id="Path_6" data-name="Path 6" d="M95.693,17.321a8.38,8.38,0,0,0,6.124-2.537,8.381,8.381,0,0,0,2.537-6.123,8.381,8.381,0,0,0-2.537-6.123,8.659,8.659,0,0,0-12.247,0A8.38,8.38,0,0,0,87.032,8.66a8.381,8.381,0,0,0,2.537,6.124,8.383,8.383,0,0,0,6.124,2.537ZM91.059,4.027a6.551,6.551,0,0,1,9.267,0,6.261,6.261,0,0,1,1.92,4.633,6.261,6.261,0,0,1-1.92,4.634,6.551,6.551,0,0,1-9.267,0,6.26,6.26,0,0,1-1.92-4.634,6.261,6.261,0,0,1,1.92-4.633Zm0,0" transform="translate(-80.92)" fill="#2cff1d"/>
    <path id="Path_7" data-name="Path 7" d="M29.927,257.6a21.389,21.389,0,0,0-.291-2.272,17.9,17.9,0,0,0-.559-2.284,11.283,11.283,0,0,0-.939-2.13,8.03,8.03,0,0,0-1.416-1.845,6.244,6.244,0,0,0-2.034-1.278,7.03,7.03,0,0,0-2.6-.47,2.636,2.636,0,0,0-1.408.6c-.422.275-.915.593-1.466.945a8.4,8.4,0,0,1-1.9.836,7.367,7.367,0,0,1-4.641,0,8.376,8.376,0,0,1-1.9-.836c-.546-.349-1.039-.667-1.468-.946a2.633,2.633,0,0,0-1.407-.6,7.021,7.021,0,0,0-2.6.47,6.239,6.239,0,0,0-2.034,1.278,8.034,8.034,0,0,0-1.416,1.845,11.3,11.3,0,0,0-.939,2.131,17.944,17.944,0,0,0-.559,2.284A21.246,21.246,0,0,0,.072,257.6C.024,258.285,0,259,0,259.721a5.971,5.971,0,0,0,1.773,4.517,6.383,6.383,0,0,0,4.57,1.667H23.657a6.384,6.384,0,0,0,4.569-1.667A5.969,5.969,0,0,0,30,259.721c0-.724-.025-1.439-.073-2.124Zm-3.154,5.115a4.3,4.3,0,0,1-3.117,1.086H6.343a4.3,4.3,0,0,1-3.117-1.086,3.9,3.9,0,0,1-1.119-2.991c0-.674.022-1.339.067-1.978a19.164,19.164,0,0,1,.263-2.046,15.826,15.826,0,0,1,.491-2.014,9.2,9.2,0,0,1,.764-1.732,5.954,5.954,0,0,1,1.041-1.364,4.142,4.142,0,0,1,1.353-.841,4.849,4.849,0,0,1,1.659-.32c.074.039.2.114.418.253.433.282.932.6,1.484.957A10.442,10.442,0,0,0,12.03,251.7a9.473,9.473,0,0,0,5.937,0,10.453,10.453,0,0,0,2.383-1.065c.565-.361,1.05-.674,1.483-.956.213-.139.344-.214.418-.253a4.852,4.852,0,0,1,1.66.32,4.148,4.148,0,0,1,1.353.841,5.94,5.94,0,0,1,1.041,1.364,9.176,9.176,0,0,1,.765,1.732,15.792,15.792,0,0,1,.492,2.014,19.326,19.326,0,0,1,.263,2.047h0c.045.636.067,1.3.067,1.977a3.9,3.9,0,0,1-1.119,2.991Zm0,0" transform="translate(0 -229.947)" fill="#2cff1d"/>
  </g>
</svg>
