<svg xmlns="http://www.w3.org/2000/svg" width="20.743" height="25.5" viewBox="0 0 20.743 25.5">
  <g id="trash" transform="translate(0.02 0)">
    <path id="Path_19" data-name="Path 19" d="M223,154.7a.6.6,0,0,0-.6.6v11.287a.6.6,0,1,0,1.194,0V155.3a.6.6,0,0,0-.594-.6Zm0,0" transform="translate(-209.12 -145.466)" fill="#2cff1d"/>
    <path id="Path_20" data-name="Path 20" d="M105,154.7a.6.6,0,0,0-.6.6v11.287a.6.6,0,1,0,1.194,0V155.3a.6.6,0,0,0-.594-.6Zm0,0" transform="translate(-98.167 -145.466)" fill="#2cff1d"/>
    <path id="Path_21" data-name="Path 21" d="M1.693,7.59V22.3a3.3,3.3,0,0,0,.876,2.272A2.941,2.941,0,0,0,4.7,25.5H16a2.94,2.94,0,0,0,2.134-.923,3.3,3.3,0,0,0,.876-2.272V7.59a2.281,2.281,0,0,0-.584-4.49H15.368V2.357A2.346,2.346,0,0,0,13,0H7.7A2.346,2.346,0,0,0,5.336,2.357V3.1H2.278a2.281,2.281,0,0,0-.585,4.49ZM16,24.3H4.7a1.891,1.891,0,0,1-1.815-2V7.643h14.93V22.3A1.891,1.891,0,0,1,16,24.3ZM6.53,2.357A1.151,1.151,0,0,1,7.7,1.193H13a1.151,1.151,0,0,1,1.171,1.165V3.1H6.53ZM2.278,4.3H18.426a1.075,1.075,0,1,1,0,2.15H2.278a1.075,1.075,0,1,1,0-2.15Zm0,0" fill="#2cff1d"/>
    <path id="Path_22" data-name="Path 22" d="M164,154.7a.6.6,0,0,0-.6.6v11.287a.6.6,0,1,0,1.194,0V155.3a.6.6,0,0,0-.594-.6Zm0,0" transform="translate(-153.643 -145.466)" fill="#2cff1d"/>
  </g>
</svg>
